<svg width="20" height="20" viewBox="0 0 20 20" fill="none" xmlns="http://www.w3.org/2000/svg">
<path d="M18.125 6.25H1.875C1.70924 6.25 1.55027 6.31585 1.43306 6.43306C1.31585 6.55027 1.25 6.70924 1.25 6.875V13.125C1.25 13.2908 1.31585 13.4497 1.43306 13.5669C1.55027 13.6842 1.70924 13.75 1.875 13.75H18.125C18.2908 13.75 18.4497 13.6842 18.5669 13.5669C18.6842 13.4497 18.75 13.2908 18.75 13.125V6.875C18.75 6.70924 18.6842 6.55027 18.5669 6.43306C18.4497 6.31585 18.2908 6.25 18.125 6.25ZM17.5 12.5H2.5V7.5H5V10H6.25V7.5H9.375V10H10.625V7.5H13.75V10H15V7.5H17.5V12.5Z" fill="white"/>
</svg>
