<svg width="22" height="22" viewBox="0 0 22 22" fill="none" xmlns="http://www.w3.org/2000/svg">
<g clip-path="url(#clip0_64_206)">
<path d="M6.19663 4.43665L4.54663 2.79582L3.25413 4.08832L4.89496 5.72915L6.19663 4.43665ZM3.66663 9.62498H0.916626V11.4583H3.66663V9.62498ZM11.9166 0.50415H10.0833V3.20832H11.9166V0.50415V0.50415ZM18.7458 4.08832L17.4533 2.79582L15.8125 4.43665L17.105 5.72915L18.7458 4.08832ZM15.8033 16.6467L17.4441 18.2966L18.7366 17.0041L17.0866 15.3633L15.8033 16.6467ZM18.3333 9.62498V11.4583H21.0833V9.62498H18.3333ZM11 5.04165C7.96579 5.04165 5.49996 7.50748 5.49996 10.5416C5.49996 13.5758 7.96579 16.0417 11 16.0417C14.0341 16.0417 16.5 13.5758 16.5 10.5416C16.5 7.50748 14.0341 5.04165 11 5.04165ZM10.0833 20.5792H11.9166V17.875H10.0833V20.5792ZM3.25413 16.995L4.54663 18.2875L6.18746 16.6375L4.89496 15.345L3.25413 16.995Z" fill="#DDDDDD"/>
</g>
<defs>
<clipPath id="clip0_64_206">
<rect width="22" height="22" fill="white"/>
</clipPath>
</defs>
</svg>
