<svg width="20" height="21" viewBox="0 0 20 21" fill="none" xmlns="http://www.w3.org/2000/svg">
<path d="M0 10.4338C0 7.7816 1.05357 5.23806 2.92893 3.36269C4.8043 1.48733 7.34784 0.433762 10 0.433762C12.6522 0.433762 15.1957 1.48733 17.0711 3.36269C18.9464 5.23806 20 7.7816 20 10.4338C20 13.0859 18.9464 15.6295 17.0711 17.5048C15.1957 19.3802 12.6522 20.4338 10 20.4338C7.34784 20.4338 4.8043 19.3802 2.92893 17.5048C1.05357 15.6295 0 13.0859 0 10.4338ZM9.375 1.78001C8.5375 2.03501 7.70625 2.80501 7.01625 4.09876C6.78892 4.52888 6.59339 4.97507 6.43125 5.43376H9.375V1.78001ZM5.1125 5.43376C5.32084 4.76978 5.58859 4.12593 5.9125 3.51001C6.12863 3.10133 6.37824 2.71125 6.65875 2.34376C5.11 2.98605 3.77751 4.05829 2.81875 5.43376H5.1125ZM4.385 9.80876C4.4225 8.71251 4.5575 7.66126 4.775 6.68376H2.0925C1.6264 7.66507 1.34827 8.72502 1.2725 9.80876H4.385ZM6.05875 6.68376C5.81289 7.70852 5.67134 8.75551 5.63625 9.80876H9.375V6.68376H6.05875ZM10.625 6.68376V9.80876H14.3625C14.3279 8.75555 14.1867 7.70855 13.9412 6.68376H10.625ZM5.6375 11.0588C5.67218 12.112 5.81331 13.159 6.05875 14.1838H9.375V11.0588H5.6375ZM10.625 11.0588V14.1838H13.9412C14.175 13.2275 14.3238 12.1738 14.3638 11.0588H10.625ZM6.43125 15.4338C6.60375 15.9163 6.8 16.3638 7.01625 16.7688C7.70625 18.0625 8.53875 18.8313 9.375 19.0875V15.4338H6.43125ZM6.65875 18.5238C6.37822 18.1563 6.12861 17.7662 5.9125 17.3575C5.5886 16.7416 5.32085 16.0977 5.1125 15.4338H2.81875C3.77746 16.8093 5.10997 17.8815 6.65875 18.5238ZM4.775 14.1838C4.54896 13.1563 4.4184 12.1102 4.385 11.0588H1.2725C1.35 12.1713 1.63625 13.225 2.0925 14.1838H4.775ZM13.3413 18.5238C14.89 17.8815 16.2225 16.8093 17.1812 15.4338H14.8875C14.6791 16.0977 14.4114 16.7416 14.0875 17.3575C13.8714 17.7662 13.6218 18.1563 13.3413 18.5238ZM10.625 15.4338V19.0875C11.4625 18.8325 12.2937 18.0625 12.9838 16.7688C13.2 16.3638 13.3962 15.9163 13.5687 15.4338H10.625ZM15.225 14.1838H17.9075C18.3638 13.225 18.65 12.1713 18.7275 11.0588H15.615C15.5816 12.1102 15.4511 13.1563 15.225 14.1838ZM18.7275 9.80876C18.6517 8.72503 18.3736 7.66508 17.9075 6.68376H15.225C15.4425 7.66126 15.5775 8.71251 15.615 9.80876H18.7275ZM14.0875 3.51001C14.3963 4.09001 14.665 4.73501 14.8875 5.43376H17.1812C16.2225 4.05824 14.89 2.98598 13.3413 2.34376C13.6138 2.69876 13.8638 3.09126 14.0875 3.51001ZM13.5687 5.43376C13.4066 4.97507 13.2111 4.52887 12.9838 4.09876C12.2937 2.80501 11.4625 2.03626 10.625 1.78001V5.43376H13.5687Z" fill="white"/>
</svg>
