<svg width="20" height="20" viewBox="0 0 20 20" fill="none" xmlns="http://www.w3.org/2000/svg">
<path d="M16.8752 13.8389V6.16142C17.3017 6.05213 17.6917 5.83192 18.0055 5.52316C18.3194 5.2144 18.546 4.82809 18.6622 4.40344C18.7785 3.97879 18.7804 3.53094 18.6676 3.10535C18.5548 2.67977 18.3314 2.2916 18.0201 1.98028C17.7087 1.66896 17.3206 1.44556 16.895 1.33277C16.4694 1.21998 16.0215 1.22182 15.5969 1.3381C15.1722 1.45437 14.7859 1.68095 14.4772 1.99482C14.1684 2.30869 13.9482 2.69867 13.8389 3.12517H6.16142C6.05213 2.69867 5.83192 2.30869 5.52316 1.99482C5.2144 1.68095 4.82809 1.45437 4.40344 1.3381C3.97879 1.22182 3.53094 1.21998 3.10535 1.33277C2.67977 1.44556 2.2916 1.66896 1.98028 1.98028C1.66896 2.2916 1.44556 2.67977 1.33277 3.10535C1.21998 3.53094 1.22182 3.97879 1.3381 4.40344C1.45437 4.82809 1.68095 5.2144 1.99482 5.52316C2.30869 5.83192 2.69867 6.05213 3.12517 6.16142V13.8389C2.69867 13.9482 2.30869 14.1684 1.99482 14.4772C1.68095 14.7859 1.45437 15.1722 1.3381 15.5969C1.22182 16.0215 1.21998 16.4694 1.33277 16.895C1.44556 17.3206 1.66896 17.7087 1.98028 18.0201C2.2916 18.3314 2.67977 18.5548 3.10535 18.6676C3.53094 18.7804 3.97879 18.7785 4.40344 18.6622C4.82809 18.546 5.2144 18.3194 5.52316 18.0055C5.83192 17.6917 6.05213 17.3017 6.16142 16.8752H13.8389C13.9482 17.3017 14.1684 17.6917 14.4772 18.0055C14.7859 18.3194 15.1722 18.546 15.5969 18.6622C16.0215 18.7785 16.4694 18.7804 16.895 18.6676C17.3206 18.5548 17.7087 18.3314 18.0201 18.0201C18.3314 17.7087 18.5548 17.3206 18.6676 16.895C18.7804 16.4694 18.7785 16.0215 18.6622 15.5969C18.546 15.1722 18.3194 14.7859 18.0055 14.4772C17.6917 14.1684 17.3017 13.9482 16.8752 13.8389ZM16.2502 2.50017C16.4974 2.50017 16.7391 2.57348 16.9446 2.71083C17.1502 2.84818 17.3104 3.04341 17.405 3.27181C17.4996 3.50022 17.5244 3.75156 17.4762 3.99403C17.4279 4.23651 17.3089 4.45924 17.1341 4.63405C16.9592 4.80887 16.7365 4.92792 16.494 4.97615C16.2516 5.02438 16.0002 4.99963 15.7718 4.90502C15.5434 4.81041 15.3482 4.65019 15.2108 4.44463C15.0735 4.23907 15.0002 3.9974 15.0002 3.75017C15.0005 3.41875 15.1323 3.101 15.3666 2.86665C15.601 2.6323 15.9187 2.5005 16.2502 2.50017ZM2.50017 3.75017C2.50017 3.50294 2.57348 3.26127 2.71083 3.05571C2.84818 2.85014 3.04341 2.68993 3.27181 2.59532C3.50022 2.50071 3.75156 2.47596 3.99403 2.52419C4.23651 2.57242 4.45924 2.69147 4.63405 2.86629C4.80887 3.0411 4.92792 3.26383 4.97615 3.50631C5.02438 3.74878 4.99963 4.00012 4.90502 4.22852C4.81041 4.45693 4.65019 4.65215 4.44463 4.78951C4.23907 4.92686 3.9974 5.00017 3.75017 5.00017C3.41875 4.99984 3.101 4.86804 2.86665 4.63369C2.6323 4.39934 2.5005 4.08159 2.50017 3.75017ZM3.75017 17.5002C3.50294 17.5002 3.26127 17.4269 3.05571 17.2895C2.85014 17.1522 2.68993 16.9569 2.59532 16.7285C2.50071 16.5001 2.47596 16.2488 2.52419 16.0063C2.57242 15.7638 2.69147 15.5411 2.86629 15.3663C3.0411 15.1915 3.26383 15.0724 3.50631 15.0242C3.74878 14.976 4.00012 15.0007 4.22852 15.0953C4.45693 15.1899 4.65215 15.3501 4.78951 15.5557C4.92686 15.7613 5.00017 16.0029 5.00017 16.2502C4.99984 16.5816 4.86804 16.8993 4.63369 17.1337C4.39934 17.368 4.08159 17.4998 3.75017 17.5002ZM13.8389 15.6252H6.16142C6.04946 15.1955 5.82491 14.8034 5.51092 14.4894C5.19693 14.1754 4.80487 13.9509 4.37517 13.8389V6.16142C4.80484 6.0494 5.19687 5.82483 5.51085 5.51085C5.82483 5.19687 6.0494 4.80484 6.16142 4.37517H13.8389C13.9509 4.80487 14.1754 5.19693 14.4894 5.51092C14.8034 5.82491 15.1955 6.04946 15.6252 6.16142V13.8389C15.1954 13.9508 14.8033 14.1753 14.4893 14.4893C14.1753 14.8033 13.9508 15.1954 13.8389 15.6252ZM16.2502 17.5002C16.0029 17.5002 15.7613 17.4269 15.5557 17.2895C15.3501 17.1522 15.1899 16.9569 15.0953 16.7285C15.0007 16.5001 14.976 16.2488 15.0242 16.0063C15.0724 15.7638 15.1915 15.5411 15.3663 15.3663C15.5411 15.1915 15.7638 15.0724 16.0063 15.0242C16.2488 14.976 16.5001 15.0007 16.7285 15.0953C16.9569 15.1899 17.1522 15.3501 17.2895 15.5557C17.4269 15.7613 17.5002 16.0029 17.5002 16.2502C17.4997 16.5815 17.3678 16.8992 17.1335 17.1335C16.8992 17.3678 16.5815 17.4997 16.2502 17.5002Z" fill="white"/>
</svg>
