<svg width="20" height="20" viewBox="0 0 20 20" fill="none" xmlns="http://www.w3.org/2000/svg">
<g clip-path="url(#clip0_3_8)">
<path d="M10 1.66666C6.77501 1.66666 4.16667 4.27499 4.16667 7.49999C4.16667 10.9155 7.72197 15.6008 9.28138 17.4916C9.6583 17.9486 10.3417 17.9486 10.7186 17.4916C12.278 15.6008 15.8333 10.9155 15.8333 7.49999C15.8333 4.27499 13.225 1.66666 10 1.66666ZM10 9.58332C8.85001 9.58332 7.91667 8.64999 7.91667 7.49999C7.91667 6.34999 8.85001 5.41666 10 5.41666C11.15 5.41666 12.0833 6.34999 12.0833 7.49999C12.0833 8.64999 11.15 9.58332 10 9.58332Z" stroke="#DDDDDD" stroke-width="1.6"/>
</g>
<defs>
<clipPath id="clip0_3_8">
<rect width="20" height="20" fill="white"/>
</clipPath>
</defs>
</svg>
