<svg width="20" height="20" viewBox="0 0 20 20" fill="none" xmlns="http://www.w3.org/2000/svg">
<g clip-path="url(#clip0_3_14)">
<path d="M9.99999 17.5C11.8409 17.5 13.3333 16.0076 13.3333 14.1667C13.3333 12.3257 11.8409 10.8333 9.99999 10.8333C8.15904 10.8333 6.66666 12.3257 6.66666 14.1667C6.66666 16.0076 8.15904 17.5 9.99999 17.5Z" fill="#DDDDDD"/>
<path d="M9.99999 8.39167C11.625 8.39167 13.1 9.05 14.1667 10.1167L18.3333 5.95C16.2 3.825 13.25 2.5 9.99999 2.5C6.74999 2.5 3.79999 3.825 1.66666 5.95833L5.83332 10.125C6.89999 9.05833 8.37499 8.39167 9.99999 8.39167Z" fill="#DDDDDD"/>
</g>
<defs>
<clipPath id="clip0_3_14">
<rect width="20" height="20" fill="white"/>
</clipPath>
</defs>
</svg>
