<svg width="43" height="38" viewBox="0 0 43 38" fill="none" xmlns="http://www.w3.org/2000/svg">
<g filter="url(#filter0_d_3_94)">
<path d="M16.416 23.5705C18.5557 23.5705 20.1211 22.3605 20.1074 20.6857C20.1211 19.4416 19.3281 18.5461 17.9336 18.3615V18.2795C19.0137 18.0539 19.752 17.2541 19.7383 16.1467C19.752 14.6291 18.4531 13.3986 16.4434 13.3986C14.5088 13.3986 12.998 14.5402 12.957 16.2013H14.666C14.7002 15.3674 15.5 14.8478 16.4297 14.8478C17.3936 14.8478 18.0225 15.4084 18.0156 16.2424C18.0225 17.1037 17.291 17.6916 16.2383 17.6916H15.3496V19.0588H16.2383C17.5234 19.0656 18.2891 19.7013 18.2891 20.59C18.2891 21.4718 17.5029 22.0734 16.416 22.0666C15.3838 22.0734 14.5908 21.547 14.543 20.7541H12.752C12.793 22.422 14.3037 23.5705 16.416 23.5705ZM25.825 23.4338C28.8328 23.4338 30.617 21.5676 30.6238 18.4709C30.617 15.3879 28.8328 13.5353 25.8797 13.5353H22.4617V23.4338H25.825ZM24.2391 21.8888V15.0802H25.784C27.8006 15.0734 28.8465 16.2013 28.8465 18.4709C28.8465 20.7541 27.8006 21.8957 25.7293 21.8888H24.2391Z" fill="white"/>
</g>
<defs>
<filter id="filter0_d_3_94" x="-7" y="-9.56624" width="58" height="60" filterUnits="userSpaceOnUse" color-interpolation-filters="sRGB">
<feFlood flood-opacity="0" result="BackgroundImageFix"/>
<feColorMatrix in="SourceAlpha" type="matrix" values="0 0 0 0 0 0 0 0 0 0 0 0 0 0 0 0 0 0 127 0" result="hardAlpha"/>
<feOffset dy="2"/>
<feGaussianBlur stdDeviation="6"/>
<feComposite in2="hardAlpha" operator="out"/>
<feColorMatrix type="matrix" values="0 0 0 0 0 0 0 0 0 0 0 0 0 0 0 0 0 0 0.35 0"/>
<feBlend mode="normal" in2="BackgroundImageFix" result="effect1_dropShadow_3_94"/>
<feBlend mode="normal" in="SourceGraphic" in2="effect1_dropShadow_3_94" result="shape"/>
</filter>
</defs>
</svg>
