<svg width="22" height="22" viewBox="0 0 22 22" fill="none" xmlns="http://www.w3.org/2000/svg">
<g clip-path="url(#clip0_64_198)">
<path d="M10.9909 1.83325C5.93087 1.83325 1.83337 5.93992 1.83337 10.9999C1.83337 16.0599 5.93087 20.1666 10.9909 20.1666C16.06 20.1666 20.1667 16.0599 20.1667 10.9999C20.1667 5.93992 16.06 1.83325 10.9909 1.83325ZM11 18.3333C6.94837 18.3333 3.66671 15.0516 3.66671 10.9999C3.66671 6.94825 6.94837 3.66659 11 3.66659C15.0517 3.66659 18.3334 6.94825 18.3334 10.9999C18.3334 15.0516 15.0517 18.3333 11 18.3333Z" fill="#DDDDDD"/>
<path d="M11.4584 6.41675H10.0834V11.9167L14.8959 14.8042L15.5834 13.6767L11.4584 11.2292V6.41675Z" fill="#DDDDDD"/>
</g>
<defs>
<clipPath id="clip0_64_198">
<rect width="22" height="22" fill="white"/>
</clipPath>
</defs>
</svg>
