<svg width="20" height="19" viewBox="0 0 20 19" fill="none" xmlns="http://www.w3.org/2000/svg">
<g clip-path="url(#clip0_64_1615)">
<path fill-rule="evenodd" clip-rule="evenodd" d="M9.57971 0.17346C9.63486 0.118166 9.70038 0.0742963 9.77252 0.0443637C9.84465 0.014431 9.92198 -0.000976563 10.0001 -0.000976562C10.0782 -0.000976563 10.1555 0.014431 10.2276 0.0443637C10.2998 0.0742963 10.3653 0.118166 10.4205 0.17346L12.7955 2.54846C12.8507 2.60366 12.8945 2.6692 12.9243 2.74133C12.9542 2.81346 12.9696 2.89076 12.9696 2.96883C12.9696 3.04691 12.9542 3.12421 12.9243 3.19634C12.8945 3.26847 12.8507 3.33401 12.7955 3.38921C12.7403 3.44441 12.6747 3.4882 12.6026 3.51808C12.5305 3.54796 12.4532 3.56333 12.3751 3.56333C12.297 3.56333 12.2197 3.54796 12.1476 3.51808C12.0754 3.4882 12.0099 3.44441 11.9547 3.38921L10.5938 2.02715V6.53133C10.5938 6.68881 10.5313 6.83983 10.4199 6.95118C10.3086 7.06253 10.1576 7.12508 10.0001 7.12508C9.84261 7.12508 9.69159 7.06253 9.58024 6.95118C9.46889 6.83983 9.40633 6.68881 9.40633 6.53133V2.02715L8.04546 3.38921C7.93397 3.5007 7.78275 3.56333 7.62508 3.56333C7.46741 3.56333 7.3162 3.5007 7.20471 3.38921C7.09322 3.27772 7.03058 3.12651 7.03058 2.96883C7.03058 2.81116 7.09322 2.65995 7.20471 2.54846L9.57971 0.17346ZM10.0001 11.8751C10.1576 11.8751 10.3086 11.9376 10.4199 12.049C10.5313 12.1603 10.5938 12.3114 10.5938 12.4688V16.973L11.9547 15.611C12.0662 15.4995 12.2174 15.4368 12.3751 15.4368C12.5328 15.4368 12.684 15.4995 12.7955 15.611C12.9069 15.7224 12.9696 15.8737 12.9696 16.0313C12.9696 16.189 12.9069 16.3402 12.7955 16.4517L10.4205 18.8267C10.3653 18.882 10.2998 18.9259 10.2276 18.9558C10.1555 18.9857 10.0782 19.0011 10.0001 19.0011C9.92198 19.0011 9.84465 18.9857 9.77252 18.9558C9.70038 18.9259 9.63486 18.882 9.57971 18.8267L7.20471 16.4517C7.1495 16.3965 7.10571 16.331 7.07584 16.2588C7.04596 16.1867 7.03058 16.1094 7.03058 16.0313C7.03058 15.9533 7.04596 15.876 7.07584 15.8038C7.10571 15.7317 7.1495 15.6662 7.20471 15.611C7.3162 15.4995 7.46741 15.4368 7.62508 15.4368C7.70315 15.4368 7.78046 15.4522 7.85259 15.4821C7.92472 15.512 7.99025 15.5558 8.04546 15.611L9.40633 16.973V12.4688C9.40633 12.3114 9.46889 12.1603 9.58024 12.049C9.69159 11.9376 9.84261 11.8751 10.0001 11.8751ZM0.67346 9.92046C0.618166 9.8653 0.574296 9.79978 0.544364 9.72765C0.514431 9.65551 0.499023 9.57818 0.499023 9.50008C0.499023 9.42198 0.514431 9.34465 0.544364 9.27252C0.574296 9.20038 0.618166 9.13486 0.67346 9.07971L3.04846 6.70471C3.15995 6.59322 3.31116 6.53058 3.46883 6.53058C3.62651 6.53058 3.77772 6.59322 3.88921 6.70471C4.0007 6.8162 4.06333 6.96741 4.06333 7.12508C4.06333 7.28275 4.0007 7.43397 3.88921 7.54546L2.52715 8.90633H7.03133C7.18881 8.90633 7.33983 8.96889 7.45118 9.08024C7.56253 9.19159 7.62508 9.34261 7.62508 9.50008C7.62508 9.65756 7.56253 9.80858 7.45118 9.91993C7.33983 10.0313 7.18881 10.0938 7.03133 10.0938H2.52715L3.88921 11.4547C4.0007 11.5662 4.06333 11.7174 4.06333 11.8751C4.06333 12.0328 4.0007 12.184 3.88921 12.2955C3.77772 12.4069 3.62651 12.4696 3.46883 12.4696C3.31116 12.4696 3.15995 12.4069 3.04846 12.2955L0.67346 9.92046ZM12.3751 9.50008C12.3751 9.34261 12.4376 9.19159 12.549 9.08024C12.6603 8.96889 12.8114 8.90633 12.9688 8.90633H17.473L16.111 7.54546C16.0558 7.49025 16.012 7.42472 15.9821 7.35259C15.9522 7.28046 15.9368 7.20315 15.9368 7.12508C15.9368 7.04701 15.9522 6.96971 15.9821 6.89758C16.012 6.82545 16.0558 6.75991 16.111 6.70471C16.2224 6.59322 16.3737 6.53058 16.5313 6.53058C16.6094 6.53058 16.6867 6.54596 16.7588 6.57584C16.831 6.60571 16.8965 6.6495 16.9517 6.70471L19.3267 9.07971C19.382 9.13486 19.4259 9.20038 19.4558 9.27252C19.4857 9.34465 19.5011 9.42198 19.5011 9.50008C19.5011 9.57818 19.4857 9.65551 19.4558 9.72765C19.4259 9.79978 19.382 9.8653 19.3267 9.92046L16.9517 12.2955C16.8965 12.3507 16.831 12.3945 16.7588 12.4243C16.6867 12.4542 16.6094 12.4696 16.5313 12.4696C16.4533 12.4696 16.376 12.4542 16.3038 12.4243C16.2317 12.3945 16.1662 12.3507 16.111 12.2955C16.0558 12.2403 16.012 12.1747 15.9821 12.1026C15.9522 12.0305 15.9368 11.9532 15.9368 11.8751C15.9368 11.797 15.9522 11.7197 15.9821 11.6476C16.012 11.5754 16.0558 11.5099 16.111 11.4547L17.473 10.0938H12.9688C12.8114 10.0938 12.6603 10.0313 12.549 9.91993C12.4376 9.80858 12.3751 9.65756 12.3751 9.50008Z" fill="white"/>
</g>
<defs>
<clipPath id="clip0_64_1615">
<rect width="19" height="19" fill="white" transform="translate(0.5)"/>
</clipPath>
</defs>
</svg>
