<svg width="20" height="20" viewBox="0 0 20 20" fill="none" xmlns="http://www.w3.org/2000/svg">
<path d="M6.875 6.25L7.75625 7.13125L9.375 5.51875V14.4812L7.75625 12.8687L6.875 13.75L10 16.875L13.125 13.75L12.2438 12.8687L10.625 14.4812V5.51875L12.2438 7.13125L13.125 6.25L10 3.125L6.875 6.25Z" fill="white"/>
<path d="M17.5 18.75H2.5C2.16858 18.7497 1.85083 18.6179 1.61648 18.3835C1.38213 18.1492 1.25033 17.8314 1.25 17.5V2.5C1.25033 2.16858 1.38213 1.85083 1.61648 1.61648C1.85083 1.38213 2.16858 1.25033 2.5 1.25H17.5C17.8314 1.25033 18.1492 1.38213 18.3835 1.61648C18.6179 1.85083 18.7497 2.16858 18.75 2.5V17.5C18.7497 17.8314 18.6179 18.1492 18.3835 18.3835C18.1492 18.6179 17.8314 18.7497 17.5 18.75ZM2.5 2.5V17.5H17.5V2.5H2.5Z" fill="white"/>
</svg>
