<svg width="20" height="20" viewBox="0 0 20 20" fill="none" xmlns="http://www.w3.org/2000/svg">
<path d="M2.49984 7.49984C2.72085 7.49984 2.93281 7.41204 3.08909 7.25576C3.24537 7.09948 3.33317 6.88752 3.33317 6.6665V4.1665C3.33317 3.94549 3.42097 3.73353 3.57725 3.57725C3.73353 3.42097 3.94549 3.33317 4.1665 3.33317H6.6665C6.88752 3.33317 7.09948 3.24537 7.25576 3.08909C7.41204 2.93281 7.49984 2.72085 7.49984 2.49984C7.49984 2.27882 7.41204 2.06686 7.25576 1.91058C7.09948 1.7543 6.88752 1.6665 6.6665 1.6665H4.1665C3.50346 1.6665 2.86758 1.9299 2.39874 2.39874C1.9299 2.86758 1.6665 3.50346 1.6665 4.1665V6.6665C1.6665 6.88752 1.7543 7.09948 1.91058 7.25576C2.06686 7.41204 2.27882 7.49984 2.49984 7.49984ZM6.6665 16.6665H4.1665C3.94549 16.6665 3.73353 16.5787 3.57725 16.4224C3.42097 16.2661 3.33317 16.0542 3.33317 15.8332V13.3332C3.33317 13.1122 3.24537 12.9002 3.08909 12.7439C2.93281 12.5876 2.72085 12.4998 2.49984 12.4998C2.27882 12.4998 2.06686 12.5876 1.91058 12.7439C1.7543 12.9002 1.6665 13.1122 1.6665 13.3332V15.8332C1.6665 16.4962 1.9299 17.1321 2.39874 17.6009C2.86758 18.0698 3.50346 18.3332 4.1665 18.3332H6.6665C6.88752 18.3332 7.09948 18.2454 7.25576 18.0891C7.41204 17.9328 7.49984 17.7208 7.49984 17.4998C7.49984 17.2788 7.41204 17.0669 7.25576 16.9106C7.09948 16.7543 6.88752 16.6665 6.6665 16.6665ZM9.99984 6.6665C9.34057 6.6665 8.6961 6.862 8.14794 7.22827C7.59977 7.59454 7.17253 8.11514 6.92024 8.72423C6.66795 9.33331 6.60194 10.0035 6.73055 10.6501C6.85917 11.2967 7.17664 11.8907 7.64281 12.3569C8.10899 12.823 8.70293 13.1405 9.34954 13.2691C9.99614 13.3977 10.6664 13.3317 11.2754 13.0794C11.8845 12.8271 12.4051 12.3999 12.7714 11.8517C13.1377 11.3036 13.3332 10.6591 13.3332 9.99984C13.3332 9.11578 12.982 8.26794 12.3569 7.64281C11.7317 7.01769 10.8839 6.6665 9.99984 6.6665ZM9.99984 11.6665C9.6702 11.6665 9.34797 11.5688 9.07389 11.3856C8.79981 11.2025 8.58618 10.9422 8.46004 10.6376C8.33389 10.3331 8.30089 9.99799 8.36519 9.67469C8.4295 9.35138 8.58824 9.05441 8.82133 8.82133C9.05441 8.58824 9.35138 8.4295 9.67469 8.36519C9.99799 8.30089 10.3331 8.33389 10.6376 8.46004C10.9422 8.58618 11.2025 8.79981 11.3856 9.07389C11.5688 9.34797 11.6665 9.6702 11.6665 9.99984C11.6665 10.4419 11.4909 10.8658 11.1783 11.1783C10.8658 11.4909 10.4419 11.6665 9.99984 11.6665ZM15.8332 1.6665H13.3332C13.1122 1.6665 12.9002 1.7543 12.7439 1.91058C12.5876 2.06686 12.4998 2.27882 12.4998 2.49984C12.4998 2.72085 12.5876 2.93281 12.7439 3.08909C12.9002 3.24537 13.1122 3.33317 13.3332 3.33317H15.8332C16.0542 3.33317 16.2661 3.42097 16.4224 3.57725C16.5787 3.73353 16.6665 3.94549 16.6665 4.1665V6.6665C16.6665 6.88752 16.7543 7.09948 16.9106 7.25576C17.0669 7.41204 17.2788 7.49984 17.4998 7.49984C17.7208 7.49984 17.9328 7.41204 18.0891 7.25576C18.2454 7.09948 18.3332 6.88752 18.3332 6.6665V4.1665C18.3332 3.50346 18.0698 2.86758 17.6009 2.39874C17.1321 1.9299 16.4962 1.6665 15.8332 1.6665ZM17.4998 12.4998C17.2788 12.4998 17.0669 12.5876 16.9106 12.7439C16.7543 12.9002 16.6665 13.1122 16.6665 13.3332V15.8332C16.6665 16.0542 16.5787 16.2661 16.4224 16.4224C16.2661 16.5787 16.0542 16.6665 15.8332 16.6665H13.3332C13.1122 16.6665 12.9002 16.7543 12.7439 16.9106C12.5876 17.0669 12.4998 17.2788 12.4998 17.4998C12.4998 17.7208 12.5876 17.9328 12.7439 18.0891C12.9002 18.2454 13.1122 18.3332 13.3332 18.3332H15.8332C16.4962 18.3332 17.1321 18.0698 17.6009 17.6009C18.0698 17.1321 18.3332 16.4962 18.3332 15.8332V13.3332C18.3332 13.1122 18.2454 12.9002 18.0891 12.7439C17.9328 12.5876 17.7208 12.4998 17.4998 12.4998Z" fill="white"/>
</svg>
