<svg width="33" height="32" viewBox="0 0 33 32" fill="none" xmlns="http://www.w3.org/2000/svg">
<path d="M16.0545 32C24.9211 32 32.109 24.8366 32.109 16C32.109 7.16344 24.9211 0 16.0545 0C7.18784 0 0 7.16344 0 16C0 24.8366 7.18784 32 16.0545 32Z" fill="#205D90"/>
<path d="M23.5873 22.7935C23.1892 23.2735 22.9516 23.5231 22.4764 23.5231C22.2131 23.5231 22.0204 23.4399 21.8342 23.2927V7.20312H10.275V23.2863C10.0887 23.4399 9.89606 23.5231 9.63277 23.5231C9.15114 23.5231 8.91996 23.2735 8.5218 22.7935C8.10439 22.2879 7.52642 21.6031 6.42188 21.6031V22.8831C6.90351 22.8831 7.13469 23.1327 7.53284 23.6127C7.95026 24.1183 8.52822 24.8031 9.63277 24.8031C9.87038 24.8031 10.0823 24.7647 10.275 24.7071C10.9749 24.5023 11.3988 24.0031 11.7263 23.6127C12.1244 23.1327 12.3556 22.8831 12.8372 22.8831C13.3189 22.8831 13.5501 23.1327 13.9482 23.6127C14.3656 24.1183 14.9436 24.8031 16.0481 24.8031C17.1527 24.8031 17.7242 24.1119 18.1481 23.6127C18.5462 23.1327 18.7838 22.8831 19.259 22.8831C19.7342 22.8831 19.9719 23.1327 20.37 23.6127C20.6975 24.0095 21.1278 24.5087 21.8278 24.7135C22.0204 24.7711 22.2323 24.8031 22.4699 24.8031C23.5745 24.8031 24.1524 24.1119 24.5699 23.6127C24.968 23.1327 25.2056 22.8831 25.6808 22.8831V21.6031C24.5763 21.6031 23.9983 22.2943 23.5809 22.7935H23.5873Z" fill="white"/>
</svg>
