<svg width="33" height="32" viewBox="0 0 33 32" fill="none" xmlns="http://www.w3.org/2000/svg">
<path d="M16.0545 32C24.9211 32 32.109 24.8366 32.109 16C32.109 7.16344 24.9211 0 16.0545 0C7.18784 0 0 7.16344 0 16C0 24.8366 7.18784 32 16.0545 32Z" fill="#10A166"/>
<path d="M13.2482 12.6033C13.6528 13.0897 14.2115 13.7553 15.284 13.7553C16.3564 13.7553 16.9087 13.0897 17.3197 12.6033C17.6985 12.1489 17.9169 11.9121 18.3664 11.9121C18.8159 11.9121 19.0343 12.1489 19.4132 12.6033C19.8177 13.0897 20.3764 13.7553 21.4489 13.7553C22.5213 13.7553 23.08 13.0897 23.4846 12.6033C23.8635 12.1489 24.0818 11.9121 24.5313 11.9121C24.9809 11.9121 25.1992 12.1489 25.5781 12.6033C25.9827 13.0897 26.5414 13.7553 27.6138 13.7553V12.4753C27.1643 12.4753 26.9459 12.2385 26.567 11.7841C26.1625 11.2977 25.6038 10.6321 24.5313 10.6321C23.4589 10.6321 22.9002 11.2977 22.4956 11.7841C22.1167 12.2385 21.8984 12.4753 21.4489 12.4753C20.9993 12.4753 20.781 12.2385 20.4021 11.7841C19.9975 11.2977 19.4389 10.6321 18.3664 10.6321C17.294 10.6321 16.7417 11.2977 16.3307 11.7841C15.9518 12.2385 15.7335 12.4753 15.284 12.4753C14.8344 12.4753 14.6161 12.2385 14.2372 11.7841C13.8326 11.2977 13.2739 10.6321 12.2015 10.6321V11.5537L11.5593 7.07373H6.42188V24.9937H14.128L13.7106 22.0625C14.0767 22.4081 14.5583 22.7153 15.284 22.7153C16.3564 22.7153 16.9087 22.0497 17.3197 21.5633C17.6985 21.1089 17.9169 20.8721 18.3664 20.8721C18.8159 20.8721 19.0343 21.1089 19.4132 21.5633C19.8177 22.0497 20.3764 22.7153 21.4489 22.7153C22.5213 22.7153 23.08 22.0497 23.4846 21.5633C23.8635 21.1089 24.0818 20.8721 24.5313 20.8721C24.9809 20.8721 25.1992 21.1089 25.5781 21.5633C25.9827 22.0497 26.5414 22.7153 27.6138 22.7153V21.4353C27.1643 21.4353 26.9459 21.1985 26.567 20.7441C26.1625 20.2577 25.6038 19.5921 24.5313 19.5921C23.4589 19.5921 22.9002 20.2577 22.4956 20.7441C22.1167 21.1985 21.8984 21.4353 21.4489 21.4353C20.9993 21.4353 20.781 21.1985 20.4021 20.7441C19.9975 20.2577 19.4389 19.5921 18.3664 19.5921C17.294 19.5921 16.7417 20.2577 16.3307 20.7441C15.9518 21.1985 15.7335 21.4353 15.284 21.4353C14.8344 21.4353 14.6161 21.1985 14.2372 20.7441C14.0189 20.4881 13.762 20.1809 13.4088 19.9441L12.9528 16.7441C13.0492 16.8401 13.1455 16.9489 13.2547 17.0833C13.6592 17.5697 14.2179 18.2353 15.2904 18.2353C16.3628 18.2353 16.9151 17.5697 17.3261 17.0833C17.705 16.6289 17.9233 16.3921 18.3728 16.3921C18.8224 16.3921 19.0407 16.6289 19.4196 17.0833C19.8242 17.5697 20.3829 18.2353 21.4553 18.2353C22.5277 18.2353 23.0864 17.5697 23.491 17.0833C23.8699 16.6289 24.0882 16.3921 24.5378 16.3921C24.9873 16.3921 25.2056 16.6289 25.5845 17.0833C25.9891 17.5697 26.5478 18.2353 27.6202 18.2353V16.9553C27.1707 16.9553 26.9523 16.7185 26.5735 16.2641C26.1689 15.7777 25.6102 15.1121 24.5378 15.1121C23.4653 15.1121 22.9066 15.7777 22.502 16.2641C22.1232 16.7185 21.9048 16.9553 21.4553 16.9553C21.0058 16.9553 20.7874 16.7185 20.4085 16.2641C20.004 15.7777 19.4453 15.1121 18.3728 15.1121C17.3004 15.1121 16.7481 15.7777 16.3371 16.2641C15.9582 16.7185 15.7399 16.9553 15.2904 16.9553C14.8408 16.9553 14.6225 16.7185 14.2436 16.2641C13.9097 15.8673 13.4666 15.3489 12.7281 15.1761L12.2593 11.9185C12.6703 11.9377 12.8886 12.1681 13.2547 12.6033H13.2482Z" fill="white"/>
</svg>
