<svg width="33" height="32" viewBox="0 0 33 32" fill="none" xmlns="http://www.w3.org/2000/svg">
<path d="M16.0545 32C24.9211 32 32.109 24.8366 32.109 16C32.109 7.16344 24.9211 0 16.0545 0C7.18784 0 0 7.16344 0 16C0 24.8366 7.18784 32 16.0545 32Z" fill="#EE7117"/>
<path d="M16.0539 5.76221C10.3899 5.76221 5.77905 10.3574 5.77905 16.0022C5.77905 21.647 10.3899 26.2422 16.0539 26.2422C21.7179 26.2422 26.3288 21.647 26.3288 16.0022C26.3288 10.3574 21.7179 5.76221 16.0539 5.76221ZM23.7601 16.0022C23.7601 17.6598 23.2271 19.1894 22.328 20.4438L11.5972 9.74941C12.8559 8.85341 14.3907 8.32221 16.0539 8.32221C20.3052 8.32221 23.7601 11.7654 23.7601 16.0022ZM8.34777 16.0022C8.34777 14.3446 8.88079 12.815 9.77984 11.5606L20.5107 22.255C19.252 23.151 17.7172 23.6822 16.0539 23.6822C11.8027 23.6822 8.34777 20.239 8.34777 16.0022Z" fill="white"/>
</svg>
