<svg width="33" height="32" viewBox="0 0 33 32" fill="none" xmlns="http://www.w3.org/2000/svg">
<path d="M16.0545 32C24.9211 32 32.109 24.8366 32.109 16C32.109 7.16344 24.9211 0 16.0545 0C7.18784 0 0 7.16344 0 16C0 24.8366 7.18784 32 16.0545 32Z" fill="#7E7F82"/>
<path d="M19.7454 13.4813C19.7454 13.4813 15.8923 17.8013 15.8923 20.6813C15.8923 23.2029 17.2923 25.0013 19.7454 25.0013C22.1985 25.0013 23.5985 23.2029 23.5985 20.6813C23.5985 17.8013 19.7454 13.4813 19.7454 13.4813Z" fill="white"/>
<path d="M24.8829 7.00256C24.8829 7.00256 22.3142 9.88256 22.3142 11.8026C22.3142 13.4858 23.2454 14.6826 24.8829 14.6826C26.5205 14.6826 27.4516 13.4794 27.4516 11.8026C27.4516 9.88256 24.8829 7.00256 24.8829 7.00256Z" fill="white"/>
<path d="M13.323 7.00256H6.90125V8.28256H13.323V7.00256Z" fill="white"/>
<path d="M10.9855 10.2035H6.90125V11.4835H10.9855V10.2035Z" fill="white"/>
<path d="M10.9855 14.0449H6.90125V15.3249H10.9855V14.0449Z" fill="white"/>
<path d="M10.9855 17.2391H6.90125V18.5191H10.9855V17.2391Z" fill="white"/>
<path d="M10.9855 20.4434H6.90125V21.7234H10.9855V20.4434Z" fill="white"/>
<path d="M13.323 23.641H6.90125V24.921H13.323V23.641Z" fill="white"/>
</svg>
